<?xml version="1.0" encoding="UTF-8" standalone="no"?>
<svg width="12px" height="6px" viewBox="0 0 12 6" version="1.1" xmlns="http://www.w3.org/2000/svg" xmlns:xlink="http://www.w3.org/1999/xlink" xmlns:sketch="http://www.bohemiancoding.com/sketch/ns">
    <title>Slice 1</title>
    <description>Created with Sketch (http://www.bohemiancoding.com/sketch)</description>
    <defs></defs>
    <g id="Page-1" stroke="none" stroke-width="1" fill="none" fill-rule="evenodd" sketch:type="MSPage">
        <path d="M11.5044643,2.71237261 L8.93303571,5.08290832 C8.86160679,5.14540863 8.78348257,5.15880136 8.69866071,5.12308689 C8.61383886,5.08290812 8.57142857,5.01817662 8.57142857,4.92889046 L8.57142857,3.42889046 L0.214285714,3.42889046 C0.151785402,3.42889046 0.100446629,3.40880138 0.0602678571,3.36862261 C0.0200890848,3.32844383 0,3.27710506 0,3.21460475 L0,1.92889046 C0,1.86639015 0.0200890848,1.81505138 0.0602678571,1.77487261 C0.100446629,1.73469383 0.151785402,1.71460475 0.214285714,1.71460475 L8.57142857,1.71460475 L8.57142857,0.214604748 C8.57142857,0.12085428 8.61383886,0.056122784 8.69866071,0.0204083197 C8.78348257,-0.0153061446 8.86160679,-0.00414554193 8.93303571,0.0538904625 L11.5044643,2.39764046 C11.5491074,2.44228354 11.5714286,2.49362232 11.5714286,2.55165832 C11.5714286,2.61415863 11.5491074,2.66772953 11.5044643,2.71237261 Z" id="arrow" sketch:type="MSShapeGroup"></path>
    </g>
</svg>