<?xml version="1.0" encoding="UTF-8" standalone="no"?>
<svg width="20px" height="11px" viewBox="0 0 20 11" version="1.1" xmlns="http://www.w3.org/2000/svg" xmlns:xlink="http://www.w3.org/1999/xlink" xmlns:sketch="http://www.bohemiancoding.com/sketch/ns">
    <title>Slice 1</title>
    <description>Created with Sketch (http://www.bohemiancoding.com/sketch)</description>
    <defs></defs>
    <g id="Page-1" stroke="none" stroke-width="1" fill="none" fill-rule="evenodd" sketch:type="MSPage">
        <g id="arrow" sketch:type="MSLayerGroup" fill="#FFFFFF">
            <g id="Page-1" sketch:type="MSShapeGroup">
                <path d="M14.8883929,10.1658166 C14.7693446,10.2908173 14.6391376,10.3176027 14.4977679,10.2461738 C14.3563981,10.1658162 14.2857143,10.0363532 14.2857143,9.85778093 L14.2857143,6.85778093 L0.357142857,6.85778093 C0.25297567,6.85778093 0.167411049,6.81760276 0.100446429,6.73724521 C0.033481808,6.65688767 0,6.55421012 0,6.4292095 L0,3.85778093 C0,3.7327803 0.033481808,3.63010276 0.100446429,3.54974521 C0.167411049,3.46938767 0.25297567,3.4292095 0.357142857,3.4292095 L14.2857143,3.4292095 L14.2857143,0.429209497 C14.2857143,0.241708559 14.3563981,0.112245568 14.4977679,0.0408166394 C14.6391376,-0.0306122892 14.7693446,-0.00829108385 14.8883929,0.107780925 L19.1741071,4.79528093 C19.2485123,4.88456709 19.2857143,4.98724463 19.2857143,5.10331664 C19.2857143,5.22831726 19.2485123,5.33545905 19.1741071,5.42474521 L14.8883929,10.1658166 Z" id="arrow-shape" class="arrow-shape"></path>
            </g>
        </g>
    </g>
</svg>